<svg width="40" height="40" viewBox="0 0 40 40" fill="none" xmlns="http://www.w3.org/2000/svg">
<path fill-rule="evenodd" clip-rule="evenodd" d="M9 26C9 21.5817 12.5817 18 17 18H23C27.4183 18 31 21.5817 31 26V31H29V26C29 22.6863 26.3137 20 23 20H17C13.6863 20 11 22.6863 11 26V33H20V35H10C9.44772 35 9 34.5523 9 34V26Z" fill="currentColor"/>
<path fill-rule="evenodd" clip-rule="evenodd" d="M20 35C20 35 20.7439 35 23.9352 35C23.9838 35 24 34.9487 24 34.8803C24 34.7436 23.3846 33.6667 23.0607 33.3419C22.8502 33.1367 22.5587 33.0171 22.251 33C22.2186 33 22.1862 33 22.1538 33H20V35Z" fill="currentColor"/>
<path fill-rule="evenodd" clip-rule="evenodd" d="M29 31C29 31 29 31.9943 29 34.9402C29 34.9851 29.0513 35 29.1197 35C29.2564 35 30.3333 34.4319 30.6581 34.133C30.8633 33.9386 30.9829 33.6695 31 33.3855C31 33.3556 31 33.3257 31 33.2958V31H29Z" fill="currentColor"/>
<path fill-rule="evenodd" clip-rule="evenodd" d="M20 15C22.2091 15 24 13.2091 24 11C24 8.79086 22.2091 7 20 7C17.7909 7 16 8.79086 16 11C16 13.2091 17.7909 15 20 15ZM20 17C23.3137 17 26 14.3137 26 11C26 7.68629 23.3137 5 20 5C16.6863 5 14 7.68629 14 11C14 14.3137 16.6863 17 20 17Z" fill="currentColor"/>
</svg>
